<?xml version="1.0" encoding="UTF-8" standalone="no"?> <svg width="64" height="64" viewBox="0 0 64 64" fill="none" xmlns="http://www.w3.org/2000/svg">
<path d="M40 48C35.2261 48 30.6477 46.1036 27.2721 42.7279C23.8964 39.3523 22 34.7739 22 30V18.846C21.4958 19.7668 20.8164 20.58 20 21.24V23H13V57H51V48H40Z" fill="#CFF09E"/>
<path d="M58.569 38.83C57.1071 37.5754 55.2216 36.9256 53.2971 37.0131C51.3726 37.1006 49.554 37.9188 48.212 39.301L46.336 41.177L44.46 39.3C43.1177 37.9171 41.2984 37.0985 39.3732 37.0112C37.448 36.9238 35.562 37.5744 34.1 38.83C33.3764 39.4832 32.7896 40.2735 32.3736 41.1551C31.9576 42.0368 31.7207 42.9922 31.6766 43.966C31.6325 44.9399 31.7821 45.9128 32.1167 46.8284C32.4514 47.744 32.9643 48.5841 33.626 49.3L43.135 59.6C43.5429 60.0415 44.0378 60.3938 44.5885 60.6347C45.1393 60.8757 45.7339 61.0001 46.335 61.0001C46.9361 61.0001 47.5307 60.8757 48.0814 60.6347C48.6321 60.3938 49.127 60.0415 49.535 59.6L59.044 49.3C59.7056 48.584 60.2185 47.7439 60.553 46.8282C60.8875 45.9126 61.0371 44.9396 60.9929 43.9658C60.9487 42.992 60.7117 42.0366 60.2956 41.155C59.8796 40.2734 59.2927 39.4831 58.569 38.83V38.83Z" fill="#A8DBA8"/>
<path d="M20 23H10C8.89543 23 8 23.8954 8 25C8 26.1046 8.89543 27 10 27H20C21.1046 27 22 26.1046 22 25C22 23.8954 21.1046 23 20 23Z" fill="#A8DBA8"/>
<path d="M10 27H20V28C20 29.3261 19.4732 30.5979 18.5355 31.5355C17.5979 32.4732 16.3261 33 15 33C13.6739 33 12.4021 32.4732 11.4645 31.5355C10.5268 30.5979 10 29.3261 10 28V27Z" fill="#79BD9A"/>
<path d="M12 12C11.9994 10.2827 12.4931 8.60142 13.422 7.157C11.9309 7.45797 10.5565 8.17785 9.45993 9.23221C8.3634 10.2866 7.59021 11.6317 7.23103 13.1099C6.87184 14.5881 6.94156 16.1381 7.43199 17.578C7.92243 19.018 8.81325 20.2883 10 21.24V23H20V21.24C20.107 21.154 20.2 21.056 20.306 20.965C18.0469 20.7914 15.9366 19.7717 14.3967 18.1097C12.8568 16.4477 12.0009 14.2657 12 12V12Z" fill="#CFF09E"/>
<path d="M21 53C20.9999 52.6331 20.9664 52.2669 20.9 51.906L22.932 50.732L20.932 47.268L18.9 48.442C18.3396 47.9634 17.6954 47.5928 17 47.349V45H13V47.349C12.3064 47.5934 11.6639 47.964 11.105 48.442L9.07202 47.268L7.07202 50.732L9.10002 51.906C8.96135 52.6287 8.96135 53.3713 9.10002 54.094L7.07202 55.268L9.07202 58.732L11.105 57.558C11.6639 58.036 12.3064 58.4066 13 58.651V61H17V58.651C17.6954 58.4072 18.3396 58.0366 18.9 57.558L20.933 58.732L22.933 55.268L20.9 54.094C20.9664 53.7331 20.9999 53.3669 21 53V53ZM15 55C14.6045 55 14.2178 54.8827 13.8889 54.6629C13.56 54.4432 13.3036 54.1308 13.1523 53.7654C13.0009 53.3999 12.9613 52.9978 13.0385 52.6098C13.1156 52.2219 13.3061 51.8655 13.5858 51.5858C13.8655 51.3061 14.2219 51.1156 14.6098 51.0384C14.9978 50.9613 15.3999 51.0009 15.7654 51.1522C16.1308 51.3036 16.4432 51.56 16.663 51.8889C16.8827 52.2178 17 52.6044 17 53C17 53.5304 16.7893 54.0391 16.4142 54.4142C16.0392 54.7893 15.5305 55 15 55Z" fill="#79BD9A"/>
<path d="M39 23C41.7614 23 44 20.7614 44 18C44 15.2386 41.7614 13 39 13C36.2386 13 34 15.2386 34 18C34 20.7614 36.2386 23 39 23Z" fill="#CFF09E"/>
<path d="M37 24H29V32H37V24Z" fill="#79BD9A"/>
<path d="M44 27H34L39 17L44 27Z" fill="#A8DBA8"/>
<path d="M59.24 38.089C58.2702 37.2205 57.1088 36.5937 55.8505 36.2596C54.5923 35.9256 53.2729 35.8939 52 36.167V9C52 8.73479 51.8947 8.48043 51.7071 8.2929C51.5196 8.10536 51.2652 8 51 8H20.644C18.8186 6.52936 16.491 5.82961 14.1572 6.04985C11.8234 6.27008 9.66786 7.39289 8.14974 9.17906C6.63163 10.9652 5.87095 13.2736 6.02977 15.6124C6.1886 17.9511 7.25436 20.1355 9.00001 21.7V22.182C8.41547 22.3857 7.90879 22.7662 7.55024 23.2707C7.1917 23.7753 6.99907 24.379 6.99907 24.998C6.99907 25.617 7.1917 26.2207 7.55024 26.7253C7.90879 27.2298 8.41547 27.6104 9.00001 27.814V28C9.00144 29.0518 9.27936 30.0848 9.8059 30.9954C10.3324 31.9059 11.0891 32.6621 12 33.188V46.681C11.6608 46.8411 11.3351 47.0284 11.026 47.241L9.57201 46.4C9.34159 46.2694 9.0694 46.2335 8.81301 46.3C8.5569 46.3687 8.33856 46.5363 8.20601 46.766L6.20601 50.23C6.13973 50.3439 6.09661 50.4698 6.07914 50.6004C6.06166 50.731 6.07018 50.8638 6.10419 50.9911C6.1382 51.1184 6.19704 51.2377 6.27733 51.3422C6.35761 51.4467 6.45776 51.5343 6.57201 51.6L8.02401 52.438C8.00801 52.626 8.00001 52.813 8.00001 53C8.00001 53.187 8.00801 53.374 8.02401 53.563L6.57201 54.4C6.45816 54.4657 6.35836 54.5531 6.27834 54.6574C6.19831 54.7617 6.13963 54.8807 6.10563 55.0076C6.07164 55.1346 6.06301 55.267 6.08023 55.3973C6.09746 55.5276 6.1402 55.6532 6.20601 55.767L8.20601 59.231C8.33856 59.4607 8.5569 59.6283 8.81301 59.697C9.06941 59.7633 9.34152 59.7274 9.57201 59.597L11.026 58.757C11.3351 58.9696 11.6608 59.1569 12 59.317V61C12 61.2652 12.1054 61.5196 12.2929 61.7071C12.4804 61.8946 12.7348 62 13 62H17C17.2652 62 17.5196 61.8946 17.7071 61.7071C17.8947 61.5196 18 61.2652 18 61V59.319C18.3392 59.1589 18.665 58.9716 18.974 58.759L20.428 59.599C20.5418 59.6646 20.6674 59.7072 20.7976 59.7242C20.9279 59.7413 21.0602 59.7326 21.187 59.6985C21.3139 59.6644 21.4328 59.6057 21.5369 59.5256C21.6411 59.4456 21.7284 59.3458 21.794 59.232L22.506 58H40.3L42.4 60.277C42.9015 60.8203 43.5099 61.2538 44.1872 61.5503C44.8644 61.8469 45.5957 62 46.335 62C47.0743 62 47.8056 61.8469 48.4828 61.5503C49.1601 61.2538 49.7686 60.8203 50.27 60.277L59.779 49.977C60.5296 49.1638 61.1115 48.2099 61.4909 47.1703C61.8704 46.1308 62.0399 45.0263 61.9897 43.9208C61.9395 42.8153 61.6705 41.7308 61.1984 40.7299C60.7262 39.729 60.0602 38.8318 59.239 38.09L59.24 38.089ZM8.00001 15C7.99897 13.8159 8.29833 12.6508 8.8701 11.6139C9.44186 10.5769 10.2673 9.70196 11.2693 9.07086C12.2712 8.43976 13.4169 8.07315 14.5991 8.00532C15.7813 7.9375 16.9613 8.17068 18.0289 8.68306C19.0964 9.19543 20.0166 9.97024 20.7032 10.935C21.3898 11.8998 21.8204 13.0229 21.9548 14.1994C22.0892 15.3759 21.9229 16.5672 21.4716 17.662C21.0202 18.7567 20.2985 19.7191 19.374 20.459C19.2573 20.5527 19.163 20.6715 19.0983 20.8065C19.0336 20.9415 19 21.0893 19 21.239V22H18.117L18.994 14.11C19.0123 13.9433 18.9884 13.7747 18.9245 13.6197C18.8606 13.4646 18.7588 13.3282 18.6283 13.2228C18.4979 13.1174 18.343 13.0466 18.178 13.0167C18.013 12.9869 17.8431 12.999 17.684 13.052L15 13.946L12.316 13.052C12.1569 12.999 11.9871 12.9869 11.822 13.0167C11.657 13.0466 11.5022 13.1174 11.3717 13.2228C11.2413 13.3282 11.1394 13.4646 11.0755 13.6197C11.0116 13.7747 10.9877 13.9433 11.006 14.11L11.883 22H11V21.239C11 21.0893 10.9664 20.9415 10.9017 20.8065C10.837 20.6715 10.7428 20.5527 10.626 20.459C9.80565 19.8054 9.14344 18.975 8.68875 18.0298C8.23406 17.0846 7.99863 16.0489 8.00001 15V15ZM13.167 15.443L14.684 15.948C14.889 16.017 15.111 16.017 15.316 15.948L16.833 15.443L16.105 22H13.9L13.167 15.443ZM10 24H20C20.2652 24 20.5196 24.1054 20.7071 24.2929C20.8947 24.4804 21 24.7348 21 25C21 25.2652 20.8947 25.5196 20.7071 25.7071C20.5196 25.8946 20.2652 26 20 26H10C9.7348 26 9.48044 25.8946 9.29291 25.7071C9.10537 25.5196 9.00001 25.2652 9.00001 25C9.00001 24.7348 9.10537 24.4804 9.29291 24.2929C9.48044 24.1054 9.7348 24 10 24V24ZM19 28C19 29.0609 18.5786 30.0783 17.8284 30.8284C17.0783 31.5786 16.0609 32 15 32C13.9391 32 12.9217 31.5786 12.1716 30.8284C11.4214 30.0783 11 29.0609 11 28H19ZM19.912 52.086C20.0293 52.6897 20.0293 53.3103 19.912 53.914C19.8747 54.1171 19.9012 54.3268 19.9878 54.5143C20.0745 54.7018 20.2171 54.8578 20.396 54.961L21.562 55.634L20.562 57.366L19.4 56.692C19.2208 56.5887 19.014 56.5435 18.808 56.5627C18.602 56.5819 18.4071 56.6644 18.25 56.799C17.7839 57.1965 17.2486 57.505 16.671 57.709C16.4761 57.7778 16.3073 57.9054 16.1879 58.0741C16.0684 58.2427 16.0042 58.4443 16.004 58.651V60H14V58.651C13.9998 58.4443 13.9356 58.2427 13.8161 58.0741C13.6967 57.9054 13.5279 57.7778 13.333 57.709C12.7554 57.505 12.2202 57.1965 11.754 56.799C11.5974 56.6636 11.4023 56.5805 11.1961 56.5613C10.99 56.5422 10.783 56.5878 10.604 56.692L9.43801 57.366L8.43801 55.634L9.60001 54.961C9.77893 54.8578 9.92152 54.7018 10.0082 54.5143C10.0948 54.3268 10.1213 54.1171 10.084 53.914C9.96669 53.3103 9.96669 52.6897 10.084 52.086C10.1213 51.8829 10.0948 51.6732 10.0082 51.4857C9.92152 51.2982 9.77893 51.1422 9.60001 51.039L8.43401 50.366L9.43401 48.634L10.6 49.308C10.779 49.4122 10.986 49.4579 11.1921 49.4387C11.3983 49.4195 11.5934 49.3364 11.75 49.201C12.2162 48.8035 12.7514 48.495 13.329 48.291C13.5247 48.2228 13.6943 48.0956 13.8145 47.9268C13.9347 47.7581 13.9995 47.5562 14 47.349V46H16V47.349C16.0002 47.5557 16.0644 47.7573 16.1839 47.9259C16.3033 48.0946 16.4721 48.2222 16.667 48.291C17.2447 48.495 17.7799 48.8035 18.246 49.201C18.4031 49.3356 18.598 49.4181 18.804 49.4373C19.01 49.4565 19.2168 49.4113 19.396 49.308L20.562 48.634L21.562 50.366L20.396 51.039C20.2171 51.1422 20.0745 51.2982 19.9878 51.4857C19.9012 51.6732 19.8747 51.8829 19.912 52.086ZM23.66 56L23.794 55.768C23.8598 55.6542 23.9026 55.5286 23.9198 55.3983C23.937 55.268 23.9284 55.1356 23.8944 55.0086C23.8604 54.8817 23.8017 54.7627 23.7217 54.6584C23.6417 54.5541 23.5419 54.4667 23.428 54.401L21.976 53.563C21.992 53.374 22 53.187 22 53C22 52.813 21.992 52.626 21.976 52.437L23.428 51.599C23.5419 51.5333 23.6417 51.4459 23.7217 51.3416C23.8017 51.2374 23.8604 51.1183 23.8944 50.9914C23.9284 50.8644 23.937 50.732 23.9198 50.6017C23.9026 50.4714 23.8598 50.3458 23.794 50.232L21.794 46.768C21.6615 46.5383 21.4431 46.3707 21.187 46.302C20.9307 46.2346 20.6581 46.2705 20.428 46.402L18.974 47.242C18.665 47.0294 18.3392 46.8421 18 46.682V45C18 44.7348 17.8947 44.4804 17.7071 44.2929C17.5196 44.1054 17.2652 44 17 44H14V33.91C14.8607 34.0613 15.7441 34.0217 16.5877 33.794C17.4314 33.5664 18.2148 33.1562 18.8825 32.5924C19.5502 32.0287 20.0859 31.3252 20.4518 30.5316C20.8177 29.7381 21.0049 28.8738 21 28V27.816C21.5846 27.6124 22.0912 27.2318 22.4498 26.7273C22.8083 26.2227 23.001 25.619 23.001 25C23.001 24.381 22.8083 23.7773 22.4498 23.2727C22.0912 22.7682 21.5846 22.3877 21 22.184V21.7C22.6167 20.2564 23.6568 18.2769 23.9284 16.1266C24.2001 13.9763 23.6849 11.8003 22.478 10H50V36.839C49.0739 37.2768 48.23 37.8704 47.505 38.594L46.336 39.763L45.167 38.594C43.6499 37.0193 41.5851 36.0886 39.4005 35.9946C37.2159 35.9006 35.0788 36.6505 33.432 38.089C32.6105 38.8306 31.9442 39.7277 31.4718 40.7286C30.9994 41.7294 30.7303 42.814 30.68 43.9196C30.6296 45.0251 30.7992 46.1297 31.1787 47.1693C31.5582 48.2089 32.1402 49.1629 32.891 49.976L38.453 56H23.66ZM58.312 48.618L48.8 58.92C48.4799 59.2505 48.0967 59.5133 47.6731 59.6927C47.2495 59.8722 46.7941 59.9646 46.334 59.9646C45.8739 59.9646 45.4186 59.8722 44.9949 59.6927C44.5713 59.5133 44.1881 59.2505 43.868 58.92L34.358 48.62C33.7868 48.001 33.3441 47.2749 33.0554 46.4836C32.7667 45.6924 32.6378 44.8517 32.6763 44.0103C32.7147 43.1689 32.9196 42.3435 33.2792 41.5818C33.6387 40.8202 34.1458 40.1374 34.771 39.573C35.917 38.5546 37.401 37.9992 38.934 38.015C40.741 38.0183 42.4731 38.7375 43.751 40.015L45.627 41.891C45.8145 42.0785 46.0689 42.1838 46.334 42.1838C46.5992 42.1838 46.8535 42.0785 47.041 41.891L48.917 40.015C50.0816 38.8212 51.6549 38.1125 53.3206 38.0315C54.9864 37.9504 56.6211 38.5029 57.896 39.578C58.5214 40.1422 59.0287 40.8249 59.3884 41.5866C59.7481 42.3482 59.9532 43.1736 59.9917 44.0151C60.0302 44.8565 59.9014 45.6972 59.6127 46.4885C59.3241 47.2798 58.8813 48.006 58.31 48.625L58.312 48.618Z" fill="#3B8686"/>
<path d="M53.746 40C53.4808 40 53.2264 40.1054 53.0389 40.2929C52.8513 40.4804 52.746 40.7348 52.746 41C52.746 41.2652 52.8513 41.5196 53.0389 41.7071C53.2264 41.8946 53.4808 42 53.746 42C54.2855 41.9892 54.8096 42.1808 55.215 42.537C55.4493 42.7466 55.6394 43.0008 55.7742 43.2848C55.909 43.5689 55.9858 43.8769 56 44.191C56.0116 44.4483 56.122 44.6913 56.3083 44.8692C56.4946 45.0471 56.7424 45.1463 57 45.146H57.046C57.1773 45.1401 57.3063 45.1083 57.4253 45.0525C57.5444 44.9968 57.6513 44.918 57.7399 44.8209C57.8285 44.7237 57.8971 44.61 57.9417 44.4863C57.9864 44.3626 58.0062 44.2313 58 44.1C57.9749 43.5219 57.8347 42.9546 57.5877 42.4314C57.3406 41.9082 56.9915 41.4396 56.561 41.053C55.7882 40.3608 54.7833 39.9849 53.746 40V40Z" fill="#3B8686"/>
<path d="M3 16C3.55228 16 4 15.5523 4 15C4 14.4477 3.55228 14 3 14C2.44772 14 2 14.4477 2 15C2 15.5523 2.44772 16 3 16Z" fill="#3B8686"/>
<path d="M27 16C27.5523 16 28 15.5523 28 15C28 14.4477 27.5523 14 27 14C26.4477 14 26 14.4477 26 15C26 15.5523 26.4477 16 27 16Z" fill="#3B8686"/>
<path d="M15 4C15.5523 4 16 3.55228 16 3C16 2.44772 15.5523 2 15 2C14.4477 2 14 2.44772 14 3C14 3.55228 14.4477 4 15 4Z" fill="#3B8686"/>
<path d="M5.108 8.134C4.93672 8.0351 4.73996 7.98922 4.5426 8.00215C4.34524 8.01508 4.15614 8.08624 3.99923 8.20664C3.84231 8.32704 3.72463 8.49127 3.66105 8.67855C3.59747 8.86584 3.59085 9.06777 3.64204 9.25881C3.69323 9.44986 3.79992 9.62143 3.94862 9.75184C4.09732 9.88225 4.28135 9.96564 4.47744 9.99145C4.67353 10.0173 4.87288 9.98436 5.05026 9.89688C5.22765 9.8094 5.37511 9.67129 5.474 9.5C5.6066 9.27032 5.64254 8.99737 5.5739 8.7412C5.50526 8.48503 5.33767 8.26661 5.108 8.134Z" fill="#3B8686"/>
<path d="M24.892 21.866C25.0633 21.9649 25.26 22.0108 25.4574 21.9979C25.6548 21.9849 25.8439 21.9138 26.0008 21.7934C26.1577 21.673 26.2754 21.5087 26.339 21.3215C26.4025 21.1342 26.4091 20.9322 26.358 20.7412C26.3068 20.5501 26.2001 20.3786 26.0514 20.2482C25.9027 20.1178 25.7187 20.0344 25.5226 20.0085C25.3265 19.9827 25.1271 20.0156 24.9497 20.1031C24.7724 20.1906 24.6249 20.3287 24.526 20.5C24.3934 20.7297 24.3575 21.0026 24.4261 21.2588C24.4947 21.515 24.6623 21.7334 24.892 21.866Z" fill="#3B8686"/>
<path d="M21.2589 5.57371C21.7924 5.43077 22.1089 4.88243 21.966 4.34897C21.8231 3.8155 21.2747 3.49892 20.7413 3.64186C20.2078 3.7848 19.8912 4.33314 20.0341 4.86661C20.1771 5.40007 20.7254 5.71665 21.2589 5.57371Z" fill="#3B8686"/>
<path d="M4.10798 20.134C3.93669 20.2329 3.79858 20.3804 3.7111 20.5577C3.62362 20.7351 3.59071 20.9345 3.61653 21.1306C3.64234 21.3267 3.72573 21.5107 3.85614 21.6594C3.98655 21.8081 4.15812 21.9148 4.34916 21.966C4.54021 22.0171 4.74214 22.0105 4.92943 21.947C5.11671 21.8834 5.28094 21.7657 5.40134 21.6088C5.52174 21.4519 5.5929 21.2628 5.60583 21.0654C5.61876 20.868 5.57288 20.6713 5.47398 20.5C5.34137 20.2703 5.12295 20.1027 4.86678 20.0341C4.61061 19.9655 4.33766 20.0014 4.10798 20.134Z" fill="#3B8686"/>
<path d="M9.49999 5.474C9.67128 5.37511 9.80939 5.22765 9.89687 5.05026C9.98435 4.87288 10.0173 4.67353 9.99144 4.47744C9.96563 4.28135 9.88224 4.09732 9.75184 3.94862C9.62143 3.79992 9.44985 3.69323 9.25881 3.64204C9.06776 3.59085 8.86583 3.59747 8.67854 3.66105C8.49126 3.72463 8.32703 3.84231 8.20663 3.99923C8.08623 4.15614 8.01507 4.34524 8.00214 4.5426C7.98921 4.73996 8.03509 4.93672 8.13399 5.108C8.2666 5.33767 8.48502 5.50526 8.74119 5.5739C8.99737 5.64254 9.27031 5.6066 9.49999 5.474Z" fill="#3B8686"/>
<path d="M44 30H41C40.7348 30 40.4804 30.1054 40.2929 30.2929C40.1054 30.4804 40 30.7348 40 31C40 31.2652 40.1054 31.5196 40.2929 31.7071C40.4804 31.8946 40.7348 32 41 32H43V35C43 35.2652 43.1054 35.5196 43.2929 35.7071C43.4804 35.8946 43.7348 36 44 36C44.2652 36 44.5196 35.8946 44.7071 35.7071C44.8946 35.5196 45 35.2652 45 35V31C45 30.7348 44.8946 30.4804 44.7071 30.2929C44.5196 30.1054 44.2652 30 44 30Z" fill="#3B8686"/>
<path d="M32 36C32 35.7348 31.8946 35.4804 31.7071 35.2929C31.5196 35.1054 31.2652 35 31 35H26C25.7348 35 25.4804 35.1054 25.2929 35.2929C25.1054 35.4804 25 35.7348 25 36V38H19V36C19 35.7348 18.8946 35.4804 18.7071 35.2929C18.5196 35.1054 18.2652 35 18 35C17.7348 35 17.4804 35.1054 17.2929 35.2929C17.1054 35.4804 17 35.7348 17 36V39C17 39.2652 17.1054 39.5196 17.2929 39.7071C17.4804 39.8946 17.7348 40 18 40H25V47C25 47.2652 25.1054 47.5196 25.2929 47.7071C25.4804 47.8946 25.7348 48 26 48C26.2652 48 26.5196 47.8946 26.7071 47.7071C26.8946 47.5196 27 47.2652 27 47V37H31C31.2652 37 31.5196 36.8946 31.7071 36.7071C31.8946 36.5196 32 36.2652 32 36Z" fill="#3B8686"/>
<path d="M15 50C14.4067 50 13.8266 50.1759 13.3333 50.5056C12.8399 50.8352 12.4554 51.3038 12.2284 51.852C12.0013 52.4001 11.9419 53.0033 12.0576 53.5853C12.1734 54.1672 12.4591 54.7018 12.8787 55.1213C13.2982 55.5409 13.8328 55.8266 14.4147 55.9424C14.9967 56.0581 15.5999 55.9987 16.1481 55.7716C16.6962 55.5446 17.1648 55.1601 17.4944 54.6667C17.8241 54.1734 18 53.5933 18 53C18 52.2044 17.6839 51.4413 17.1213 50.8787C16.5587 50.3161 15.7957 50 15 50V50ZM15 54C14.8022 54 14.6089 53.9414 14.4444 53.8315C14.28 53.7216 14.1518 53.5654 14.0761 53.3827C14.0004 53.2 13.9806 52.9989 14.0192 52.8049C14.0578 52.6109 14.153 52.4327 14.2929 52.2929C14.4327 52.153 14.6109 52.0578 14.8049 52.0192C14.9989 51.9806 15.2 52.0004 15.3827 52.0761C15.5654 52.1518 15.7216 52.28 15.8315 52.4444C15.9414 52.6089 16 52.8022 16 53C16 53.2652 15.8946 53.5196 15.7071 53.7071C15.5196 53.8946 15.2652 54 15 54Z" fill="#3B8686"/>
<path d="M28 32C28 32.2652 28.1054 32.5196 28.2929 32.7071C28.4804 32.8946 28.7348 33 29 33H37C37.2652 33 37.5196 32.8946 37.7071 32.7071C37.8946 32.5196 38 32.2652 38 32V28H44C44.1709 28.0009 44.3392 27.9581 44.4888 27.8755C44.6384 27.7929 44.7644 27.6733 44.8546 27.5282C44.9449 27.383 44.9965 27.2172 45.0044 27.0465C45.0123 26.8758 44.9764 26.7059 44.9 26.553L42.894 22.542C43.5548 21.9841 44.0857 21.2885 44.4495 20.504C44.8132 19.7194 45.0011 18.8648 45 18C45 16.4087 44.3679 14.8826 43.2426 13.7574C42.1174 12.6321 40.5913 12 39 12C37.4087 12 35.8826 12.6321 34.7574 13.7574C33.6321 14.8826 33 16.4087 33 18C32.9995 18.8652 33.1882 19.72 33.5528 20.5046C33.9175 21.2892 34.4493 21.9846 35.111 22.542L34.882 23H29C28.7348 23 28.4804 23.1054 28.2929 23.2929C28.1054 23.4804 28 23.7348 28 24V32ZM35.618 26L39 19.236L42.382 26H35.618ZM35 18C35 16.9391 35.4214 15.9217 36.1716 15.1716C36.9217 14.4214 37.9391 14 39 14C40.0609 14 41.0783 14.4214 41.8284 15.1716C42.5786 15.9217 43 16.9391 43 18C42.9996 18.9906 42.6266 19.9448 41.955 20.673L39.895 16.553C39.8026 16.398 39.6715 16.2697 39.5147 16.1806C39.3578 16.0915 39.1804 16.0446 39 16.0446C38.8196 16.0446 38.6422 16.0915 38.4853 16.1806C38.3285 16.2697 38.1974 16.398 38.105 16.553L36.045 20.673C35.3734 19.9448 35.0004 18.9906 35 18ZM30 25H33.882L33.1 26.553C33.0236 26.7059 32.9877 26.8758 32.9956 27.0465C33.0035 27.2172 33.0551 27.383 33.1454 27.5282C33.2356 27.6733 33.3616 27.7929 33.5112 27.8755C33.6608 27.9581 33.8291 28.0009 34 28H36V31H30V25Z" fill="#3B8686"/>
</svg>
